<?xml version="1.0" standalone="no"?>
<!DOCTYPE svg PUBLIC "-//W3C//DTD SVG 1.1//EN" "http://www.w3.org/Graphics/SVG/1.1/DTD/svg11.dtd" >
<svg xmlns="http://www.w3.org/2000/svg">
<metadata></metadata>
<defs>
<font id="brasil2014bold" horiz-adv-x="2797" >
<font-face units-per-em="2048" ascent="1638" descent="-410" />
<missing-glyph horiz-adv-x="460" />
<glyph horiz-adv-x="2048" />
<glyph horiz-adv-x="2048" />
<glyph unicode="&#xd;" horiz-adv-x="681" />
<glyph unicode=" "  horiz-adv-x="460" />
<glyph unicode="&#x09;" horiz-adv-x="460" />
<glyph unicode="&#xa0;" horiz-adv-x="460" />
<glyph unicode="'" horiz-adv-x="417" d="M61 1229q0 72 33 122t84 50q72 0 125 -51.5t53 -171.5q0 -72 -25.5 -132.5t-72.5 -87.5q-29 -16 -41 -16l-18 8q31 72 30 111q0 8 -2 12q-166 4 -166 156z" />
<glyph unicode="," horiz-adv-x="378" d="M39 82q0 72 32.5 122t84.5 50q72 0 125 -51t53 -172q0 -72 -25.5 -132.5t-72.5 -86.5q-29 -16 -41 -17l-19 8q31 72 31 111q0 8 -2 12q-166 4 -166 156z" />
<glyph unicode="." horiz-adv-x="409" d="M57 129q0 66 45 113t109 47q63 0 109.5 -47t46.5 -113q0 -68 -46.5 -114t-109.5 -46t-108.5 46t-45.5 114z" />
<glyph unicode="0" horiz-adv-x="1001" d="M41 895l2 74q0 8 2 23.5t13.5 57.5t31 80.5t60 86t95 81t141.5 57t194 23.5q145 0 227 -61q154 -119 154 -459q0 -131 -21.5 -282.5t-44.5 -235.5l-23 -86q-2 -10 -8 -26.5t-30.5 -59.5t-57.5 -77t-92 -60.5t-131 -26.5q-96 0 -176 39t-132 98.5t-91 144.5t-59.5 164.5 t-34 172t-16.5 153t-3 119.5zM373 549q0 -53 45 -95t96 -42q55 0 95 50t40 111q0 53 -37 92.5t-84 39.5q-57 0 -106 -49.5t-49 -106.5z" />
<glyph unicode="1" horiz-adv-x="679" d="M10 1223q0 35 19 61q29 43 86 64.5t99 24.5t118 3q133 0 192 -20q10 -4 19 -27q18 -78 46.5 -336t28.5 -485q0 -367 -88 -481q-18 -23 -71 -23q-94 0 -131 19q-127 55 -127 555q0 111 6 232.5t14 188.5l6 66q-2 4 -4 9t-16 19.5t-34.5 27t-60.5 26.5t-92 20 q-10 25 -10 56z" />
<glyph unicode="2" horiz-adv-x="1052" d="M10 1196q0 68 17 94q49 82 307 82q580 0 579 -354q0 -96 -51 -213q-66 -145 -128 -263t-91 -163l-31 -45q141 23 363 22h67q-4 -55 -47 -169.5t-102 -129.5q-219 -53 -531 -53q-10 0 -28.5 3t-65.5 15.5t-82.5 30t-65.5 52t-30 79.5q0 53 20.5 106.5t96.5 190.5 q98 174 185 292t120 155t33 55q0 63 -236 64q-215 0 -266 -21q-33 59 -33 170z" />
<glyph unicode="3" horiz-adv-x="1091" d="M10 1110q2 37 23.5 95.5t46.5 90.5q59 78 266 78q272 0 402.5 -91t130.5 -239q0 -90 -52.5 -174t-146.5 -139q188 -33 279.5 -105.5t91.5 -219.5q0 -94 -52.5 -168t-129 -116t-177 -69.5t-186.5 -38t-164 -10.5q-113 0 -113 53q0 8 2 13q150 119 261.5 230.5t111.5 141.5 q0 29 -84 37q-4 0 -24.5 3t-40 5t-49 6.5t-55 10.5t-55.5 12t-53.5 15.5t-43 19.5t-29.5 22.5t-10 26.5q29 29 132 94.5t176 135t73 145.5q0 139 -371 139q-78 0 -160 -4z" />
<glyph unicode="4" horiz-adv-x="1083" d="M10 571q0 233 203 486q250 305 473 319h10q18 -14 46 -36.5t77 -83t58 -105.5q8 -35 13 -152.5t7 -218.5l2 -100q47 -8 82 -37t51.5 -62.5t26.5 -66.5t12 -55l2 -21l-194 -26l-2 -23q-37 -287 -89 -366q-31 -18 -71 -19q-53 0 -95 10.5t-57 18.5l-16 6q-2 10 -7 24.5 t-10.5 33t-13.5 88t-14 182.5q-260 6 -412 59q-82 27 -82 145zM367 762q0 -59 39 -91t94 -32q61 0 113.5 39t52.5 102q0 57 -50.5 96t-111.5 39q-59 0 -98 -38.5t-39 -114.5z" />
<glyph unicode="5" horiz-adv-x="1062" d="M10 1223l6 114q53 4 149.5 12.5t176.5 14.5t145 6q102 0 179 -20.5t117 -47t67 -67.5t33 -68.5t10 -62.5t4 -39q-238 31 -395 31q-76 0 -104.5 -9.5t-28.5 -35.5l2 -41q51 -12 107.5 -30.5t161.5 -66t183 -102.5t138.5 -144t60.5 -188q0 -82 -35 -168q-37 -88 -93 -149.5 t-105.5 -91t-119 -46t-104.5 -18.5t-92 -2q-51 0 -174 26.5t-162 67.5q-25 29 -24 56q0 90 178 213q80 -14 143 -15q166 0 166 82q-4 45 -53 98.5t-118 96.5t-136.5 79.5t-114.5 57.5l-47 20q-20 35 -44 87.5t-50.5 153.5t-26.5 196z" />
<glyph unicode="6" horiz-adv-x="1067" d="M18 653q0 258 121 480q117 158 324 217q59 20 133 20q72 0 135 -29v-4q-301 -289 -321 -403h4q41 4 65 4h51q215 0 361 -113q156 -160 156 -356q0 -240 -324 -426q-96 -43 -172 -43h-39q-305 0 -442 332q-51 145 -52 321zM387 520q33 -129 152 -129q121 0 153 133v21 q0 80 -104 117q-16 8 -45 8h-8q-111 0 -148 -113v-37z" />
<glyph unicode="7" horiz-adv-x="1013" d="M43 1212v31q0 104 92 129h828q8 -2 8 -8q-373 -1262 -391 -1309q-45 -55 -109 -55h-20q-111 0 -177 121l-4 22v29l242 848q-289 -4 -377 -8q-68 0 -92 200z" />
<glyph unicode="8" horiz-adv-x="1013" d="M37 410q0 213 160 368q-100 133 -111 248q0 221 250 320q38 20 110 20h91q418 -92 417 -420q0 -139 -149 -289v-10q178 -80 178 -278v-29q0 -229 -397 -340h-129q-319 0 -410 289zM385 907q0 -100 160 -129q92 0 121 160q0 109 -170 129q-111 -35 -111 -121v-39zM406 399 q25 -121 120 -120h39q102 0 119 141v29q0 111 -147 129q-131 -23 -131 -129v-50z" />
<glyph unicode="9" horiz-adv-x="976" d="M18 918q0 289 252 393q172 71 297 71h29q188 0 311 -200q49 -94 49 -264v-72q0 -489 -264 -737q-117 -96 -254 -97h-55l-8 4q150 279 149 371q-209 29 -282 82q-123 66 -183 231q-41 106 -41 218zM383 868q0 -57 88 -102q27 -12 57 -12h15q106 0 145 110v41q0 55 -80 105 q-31 14 -73 18q-98 0 -144 -98q-8 -17 -8 -33v-29z" />
<glyph unicode="A" horiz-adv-x="1191" d="M10 201q0 221 146 649q35 100 67.5 176t77.5 153.5t102.5 119.5t120.5 42q170 0 369 -309q139 -215 214 -474t75 -437q0 -152 -60 -152q-49 0 -146 59.5t-169 118.5l-74 60q-10 -8 -31.5 -22.5t-85 -50.5t-130 -63.5t-160 -50t-181.5 -22.5q-59 0 -88 27q-47 47 -47 176z M414 586q0 -57 35.5 -88t89.5 -31q61 0 109 39t48 100q0 55 -47 92t-106 37q-55 0 -92 -38t-37 -111z" />
<glyph unicode="B" horiz-adv-x="1204" d="M41 662q0 147 49 316t98 263l52 96q31 -2 80 -8t175 -34.5t223 -67.5t176 -115t79 -168q0 -82 -94 -164q295 -147 295 -374q0 -98 -55.5 -175t-135.5 -122.5t-179 -74t-176 -38.5t-139 -10q-131 0 -225 69.5t-139 180t-64.5 216t-19.5 210.5zM340 911q0 -59 34 -93 t93 -34q63 0 112.5 37t49.5 99q0 57 -47 93t-109 36q-55 0 -94 -34t-39 -104zM545 403q0 -61 33.5 -95t95 -34t109.5 38t48 100q0 55 -48 93t-107 38q-55 0 -93 -35t-38 -105z" />
<glyph unicode="C" horiz-adv-x="1179" d="M41 668q0 195 73.5 349t209.5 247q180 125 507 125q156 0 310 -31q28 -2 28 -66q0 -63 -24.5 -124.5t-57.5 -69.5q-147 -31 -282 -97.5t-230.5 -167.5t-95.5 -210q0 -82 29 -145.5t77 -103.5t103 -67.5t125 -40t124 -17.5t114 -5q-37 -139 -160 -203q-111 -55 -301 -55 q-141 0 -211 28q-111 43 -184.5 132.5t-103.5 199t-40 182t-10 140.5z" />
<glyph unicode="D" horiz-adv-x="1114" d="M41 682q0 154 24.5 319.5t49.5 253.5l24 88q10 0 30.5 -1t81 -9t120 -22.5t140.5 -45t150.5 -71.5t142.5 -108.5t124 -149.5q20 -33 51 -94.5t67.5 -178t36.5 -212.5q0 -117 -53 -204t-128 -134t-176 -75t-177 -36t-152 -8l-112 6l-25 33q-25 33 -60.5 97.5t-71.5 144 t-61.5 189t-25.5 218.5zM414 555q0 -70 35.5 -106.5t85.5 -36.5q63 0 114 46t51 109q-2 55 -43 86t-96 31q-59 0 -103 -34t-44 -95z" />
<glyph unicode="E" horiz-adv-x="1058" d="M61 420q0 272 15 448q20 274 47 445q74 59 305 59q160 0 313.5 -24.5t169.5 -49.5q84 -115 103 -284q-115 8 -156 8q-92 0 -162.5 -12.5t-108.5 -28.5t-62.5 -41t-32 -44t-7.5 -40q0 -43 11 -43q82 12 157 12q70 0 136.5 -7t99.5 -15l33 -8q0 -10 -2 -28.5t-24 -69 t-57.5 -93.5t-115.5 -90t-188 -74q88 -35 233 -65.5t190 -44.5q27 -10 53.5 -90t26.5 -144q0 -61 -28 -65q-150 -31 -310 -31q-150 0 -284 31q-143 31 -249 126t-106 263z" />
<glyph unicode="F" horiz-adv-x="915" d="M61 768q0 254 35 549q121 55 404 55q141 0 223 -16q76 -23 129 -88.5t53 -151.5q-98 -23 -176 -57.5t-119 -67.5t-68.5 -61.5t-33.5 -46.5l-8 -19l288 -4q0 -92 -28.5 -156.5t-62 -94t-86 -46t-74 -17.5t-52.5 -1q0 -180 4.5 -313.5t8.5 -176.5l4 -43q-125 -18 -207 -18 q-70 0 -118 11t-60 22l-13 10q-4 51 -16 160.5t-19.5 242.5t-7.5 328z" />
<glyph unicode="G" horiz-adv-x="1085" d="M41 657q0 117 25.5 221.5t63.5 170t75 113.5t61 69l27 20q143 121 412 121q45 0 90 -4t65 -8l23 -2q6 -2 15 -6t36 -29t47 -61.5t38.5 -110.5t24.5 -170q-135 0 -246.5 -17.5t-181 -44t-122 -64.5t-79 -71.5t-42 -71.5t-18.5 -59.5t-3 -40.5q0 -10 3 -27.5t20.5 -53 t47.5 -63.5t92.5 -49.5t146.5 -21.5q41 0 65 2q-6 64 -16 234q0 6 20 6q78 0 195.5 -43t126.5 -107q2 -10 2 -32q0 -178 -105 -312q-41 -51 -175 -101t-302 -50q-96 0 -173 44t-124 113.5t-78.5 160.5t-44 176t-12.5 169z" />
<glyph unicode="H" d="M43 713v499q2 17 8 17h62q6 -2 6 -17v-475q0 -149 54 -149h1h4q66 0 66 155v469q2 16 8 17h61q8 -2 9 -17v-483q0 -188 -74 -258q-35 -25 -62 -25h-8q-88 0 -125 150q-10 70 -10 117zM383 463v532q2 14 8 15h51q6 0 7 -47q38 55 77 55h2q70 -23 70 -150q4 0 4 -45v-360 q0 -16 -6 -17h-59q-8 0 -9 17v360q0 70 -24 70q-18 0 -47 -39v-391q0 -16 -8 -17h-58q-8 0 -8 17zM649 463v532q2 14 8 15h52q8 0 8 -56q30 64 67 64l4 -17v-124q0 -14 -36 -23q-33 -53 -33 -94v-297q0 -16 -6 -17h-56q-8 0 -8 17zM797 705v47q0 219 94 266h18 q94 0 111 -250v-63q0 -14 -8 -15h-146q6 -119 43 -119h4q23 0 58 64q45 -49 49 -70q-37 -119 -111 -119h-4q-78 0 -102 172q-6 31 -6 87zM866 815h88q-10 78 -41 78h-4q-43 -10 -43 -78zM1034 393q0 59 33 109q-27 29 -27 86q4 39 33 94q-29 68 -29 133v23q0 157 111 180 q23 0 55 -39q23 39 66 39l2 -17v-77q0 -14 -35 -23q10 -41 10 -94q0 -188 -143 -189v-14q0 -23 125 -47q41 -47 41 -117v-47q0 -115 -125 -141q-117 0 -117 141zM1100 408q0 -47 59 -48h6q45 14 45 41v15q0 37 -77 47q-33 -12 -33 -55zM1110 823q0 -61 37 -71h4q20 0 33 47 v47q-12 47 -33 47q-41 0 -41 -70zM1313 463v532q0 15 6 15h55q6 -2 6 -15v-532q0 -16 -6 -17h-55q-6 0 -6 17zM1313 1104v108q0 17 6 17h55q6 -2 6 -17v-108q0 -16 -6 -17h-55q-6 0 -6 17zM1421 565v15q35 72 47 71q27 -80 52 -80q29 0 32 33v31q-10 18 -98 102 q-12 0 -24 92v39q0 132 86 150h4q57 0 92 -94v-9q0 -6 -41 -77h-4q-27 55 -51 55q-20 -4 -21 -25v-30q10 -18 94 -95q29 -41 29 -139v-8q0 -94 -57 -141q-25 -8 -41 -9q-63 0 -99 119zM1630 909v92q0 16 6 17h27v164q0 16 6 16h60q8 -2 8 -16v-164h43q8 -2 8 -17v-92 q0 -16 -8 -16h-43v-305q0 -16 6 -17l45 9v-109q-4 -25 -23 -25h-45q-57 0 -57 197v250h-27q-6 0 -6 16zM1798 705v47q0 219 94 266h19q94 0 110 -250v-63q0 -14 -8 -15h-145q6 -119 43 -119h4q23 0 59 64q43 -49 47 -70q-35 -119 -110 -119h-2q-80 0 -103 172q-8 31 -8 87z M1868 815h88q-10 78 -41 78h-4q-43 -10 -43 -78zM2058 463v532q0 14 6 15h52q8 0 8 -56q30 64 69 64l5 -17v-124q0 -14 -37 -23q-33 -53 -33 -94v-297q0 -16 -8 -17h-56q-6 0 -6 17zM2204 705v47q0 219 96 266h16q94 0 111 -250v-63q0 -14 -8 -15h-146q6 -119 43 -119h4 q23 0 60 64q43 -49 47 -70q-35 -119 -111 -119h-2q-78 0 -102 172q-8 31 -8 87zM2273 815h88q-10 78 -41 78h-4q-43 -10 -43 -78zM2454 705v63q0 207 98 250h10q18 0 51 -39v233q2 17 8 17h58q8 -2 8 -17v-741q0 -16 -8 -16h-47q-8 0 -9 47q-29 -55 -67 -56q-90 0 -102 259z M2521 729q8 -158 49 -158h2q16 0 41 33v250q0 18 -37 39h-6q-43 0 -49 -164z" />
<glyph unicode="I" horiz-adv-x="536" d="M61 537q0 168 15.5 411.5t15.5 249.5t1 18.5t13.5 42t33 53t64.5 42t103 18.5q66 0 146 -20q22 -122 22 -469v-31q0 -176 -9 -326.5t-20.5 -237.5t-24.5 -150.5t-20 -88.5l-8 -22q-80 -33 -145 -33q-76 0 -131 47q-55 229 -56 496z" />
<glyph unicode="J" d="M43 713v499q2 17 8 17h62q6 -2 6 -17v-475q0 -149 54 -149h1h4q66 0 66 155v469q2 16 8 17h61q8 -2 9 -17v-483q0 -188 -74 -258q-35 -25 -62 -25h-8q-88 0 -125 150q-10 70 -10 117zM383 463v532q2 14 8 15h51q6 0 7 -47q38 55 77 55h2q70 -23 70 -150q4 0 4 -45v-360 q0 -16 -6 -17h-59q-8 0 -9 17v360q0 70 -24 70q-18 0 -47 -39v-391q0 -16 -8 -17h-58q-8 0 -8 17zM649 463v532q2 14 8 15h52q8 0 8 -56q30 64 67 64l4 -17v-124q0 -14 -36 -23q-33 -53 -33 -94v-297q0 -16 -6 -17h-56q-8 0 -8 17zM797 705v47q0 219 94 266h18 q94 0 111 -250v-63q0 -14 -8 -15h-146q6 -119 43 -119h4q23 0 58 64q45 -49 49 -70q-37 -119 -111 -119h-4q-78 0 -102 172q-6 31 -6 87zM866 815h88q-10 78 -41 78h-4q-43 -10 -43 -78zM1034 393q0 59 33 109q-27 29 -27 86q4 39 33 94q-29 68 -29 133v23q0 157 111 180 q23 0 55 -39q23 39 66 39l2 -17v-77q0 -14 -35 -23q10 -41 10 -94q0 -188 -143 -189v-14q0 -23 125 -47q41 -47 41 -117v-47q0 -115 -125 -141q-117 0 -117 141zM1100 408q0 -47 59 -48h6q45 14 45 41v15q0 37 -77 47q-33 -12 -33 -55zM1110 823q0 -61 37 -71h4q20 0 33 47 v47q-12 47 -33 47q-41 0 -41 -70zM1313 463v532q0 15 6 15h55q6 -2 6 -15v-532q0 -16 -6 -17h-55q-6 0 -6 17zM1313 1104v108q0 17 6 17h55q6 -2 6 -17v-108q0 -16 -6 -17h-55q-6 0 -6 17zM1421 565v15q35 72 47 71q27 -80 52 -80q29 0 32 33v31q-10 18 -98 102 q-12 0 -24 92v39q0 132 86 150h4q57 0 92 -94v-9q0 -6 -41 -77h-4q-27 55 -51 55q-20 -4 -21 -25v-30q10 -18 94 -95q29 -41 29 -139v-8q0 -94 -57 -141q-25 -8 -41 -9q-63 0 -99 119zM1630 909v92q0 16 6 17h27v164q0 16 6 16h60q8 -2 8 -16v-164h43q8 -2 8 -17v-92 q0 -16 -8 -16h-43v-305q0 -16 6 -17l45 9v-109q-4 -25 -23 -25h-45q-57 0 -57 197v250h-27q-6 0 -6 16zM1798 705v47q0 219 94 266h19q94 0 110 -250v-63q0 -14 -8 -15h-145q6 -119 43 -119h4q23 0 59 64q43 -49 47 -70q-35 -119 -110 -119h-2q-80 0 -103 172q-8 31 -8 87z M1868 815h88q-10 78 -41 78h-4q-43 -10 -43 -78zM2058 463v532q0 14 6 15h52q8 0 8 -56q30 64 69 64l5 -17v-124q0 -14 -37 -23q-33 -53 -33 -94v-297q0 -16 -8 -17h-56q-6 0 -6 17zM2204 705v47q0 219 96 266h16q94 0 111 -250v-63q0 -14 -8 -15h-146q6 -119 43 -119h4 q23 0 60 64q43 -49 47 -70q-35 -119 -111 -119h-2q-78 0 -102 172q-8 31 -8 87zM2273 815h88q-10 78 -41 78h-4q-43 -10 -43 -78zM2454 705v63q0 207 98 250h10q18 0 51 -39v233q2 17 8 17h58q8 -2 8 -17v-741q0 -16 -8 -16h-47q-8 0 -9 47q-29 -55 -67 -56q-90 0 -102 259z M2521 729q8 -158 49 -158h2q16 0 41 33v250q0 18 -37 39h-6q-43 0 -49 -164z" />
<glyph unicode="K" horiz-adv-x="1335" d="M61 913q0 231 29 304q41 88 92 122q72 31 144 31q39 0 88 -22q92 -43 92 -197v-53q174 119 389 235q29 16 59 17q43 0 75 -38t44 -91.5t15.5 -88t3.5 -51.5l-2 -43l-445 -338q27 -12 70 -32.5t154.5 -82t195.5 -120.5t153.5 -140t69.5 -153q0 -27 -6 -39 q-10 -59 -72 -133q-530 269 -708 365q0 -10 -3 -40t-20.5 -88.5t-45 -106.5t-82 -86t-126.5 -38q-61 86 -112.5 339t-51.5 568z" />
<glyph unicode="L" horiz-adv-x="882" d="M61 868q0 131 6.5 247t10.5 167l6 49q123 39 235 39q123 0 164 -61v-6q0 -8 -20.5 -295t-20.5 -435q1 -90 11 -141q14 -88 184 -88q53 0 114.5 8t96.5 17l35 8q-4 -16 -12.5 -42t-36 -91.5t-59.5 -116.5t-82 -92t-101 -41q-76 0 -192.5 8t-193.5 15.5t-89 9.5 q0 2 -6.5 63.5t-13.5 157.5t-15 204.5t-14.5 223.5t-6.5 192z" />
<glyph unicode="M" horiz-adv-x="1378" d="M61 1110q86 27 263 27q84 0 143 -27t96 -65.5t101 -124.5q8 12 23 33.5t63.5 82t97.5 110.5t119.5 105t136.5 84q2 -2 6 -4q207 -133 207 -657q0 -258 -47 -578q-10 -92 -137 -100q-37 0 -90.5 12t-55.5 33q-8 209 -8 389q0 98 2 137q-74 -209 -145.5 -344t-106.5 -166 l-33 -32q-6 4 -17 14t-44 48t-63.5 84t-68.5 125t-67 169v-139q0 -227 -43 -308q-12 -26 -94 -26h-6q-86 0 -100 24q-49 102 -82 376t-41 497z" />
<glyph unicode="N" horiz-adv-x="1181" d="M61 758q0 84 9.5 177t18.5 145.5t13 52.5l371 -129q63 -23 139 -58t121 -57l43 -25l-14 504q10 0 27.5 -3t65.5 -14.5t88 -27.5t81 -47t59 -68q23 -167 27 -245q10 -111 10 -238q0 -90 -6 -169t-16.5 -137.5t-18.5 -96t-19 -71.5t-11 -36q-45 -123 -125 -211 q0 -2 -35 12.5t-112 62.5t-163 120q-43 35 -89 90t-70 92l-25 39q6 -117 6 -223q0 -160 -20 -168q-78 -35 -172 -35l-68 6q-115 418 -115 758z" />
<glyph unicode="O" horiz-adv-x="1112" d="M41 764q0 31 2 78t2 57q6 51 39 125t92.5 151.5t157.5 132t213 54.5q100 0 213 -43q152 -61 231.5 -231t79.5 -381q0 -180 -53 -340t-164 -266.5t-256 -106.5t-256 63.5t-175.5 174t-95 244.5t-30.5 288zM430 530q0 -51 45 -94t96 -43q53 0 93.5 50.5t40.5 111.5 q0 55 -36 92t-85 37q-57 0 -105.5 -47.5t-48.5 -106.5z" />
<glyph unicode="P" horiz-adv-x="1054" d="M41 1069q0 35 7 96.5t14.5 105.5t9.5 44q239 53 442 53q500 0 500 -315q0 -84 -33 -211q-29 -106 -90.5 -189.5t-130 -126.5t-132 -70.5t-104.5 -33.5l-43 -8l8 -414q-41 -8 -96 -8q-139 0 -205 51q-20 160 -83.5 533.5t-63.5 492.5zM422 883q0 -72 35 -108t86 -36 q59 0 111.5 42.5t54.5 101.5q0 61 -41 95t-103 34q-57 0 -100 -34t-43 -95z" />
<glyph unicode="Q" horiz-adv-x="1110" d="M41 764q0 31 2 78t2 57q6 51 39 125t92.5 151.5t157.5 132t213 54.5q100 0 213 -43q152 -61 231.5 -231t79.5 -381q0 -180 -53 -340q-18 -53 -43 -103q12 -14 20 -26q20 -31 33.5 -57.5t20.5 -37.5l2 -10q-29 -49 -60 -82q-37 -39 -80 -51q-55 24 -106 59 q-91 -65 -204 -65h-3q-145 0 -256 63.5t-175.5 174t-95 244.5t-30.5 288zM430 530q0 -51 45 -94q27 -27 57 -37q4 14 17 37q16 27 45 56q31 33 76 67q15 -8 35 -22v18q0 55 -36 92t-85 37q-57 0 -105.5 -47t-48.5 -107z" />
<glyph unicode="R" horiz-adv-x="1101" d="M41 1069q0 35 7 96.5t14.5 105.5t9.5 44q240 53 442 53q500 0 500 -315q0 -84 -33 -211q-29 -106 -90.5 -189.5t-128.5 -126.5q-14 -8 -27 -16q84 -86 150 -162q68 -78 101.5 -126t54 -84t28.5 -50l4 -12q-53 -41 -108 -60q-47 -17 -98 -17q-20 0 -40 3q-164 98 -297 234 l-47 47l6 -283q-41 -8 -96 -8q-139 0 -205 51q-20 160 -83.5 533.5t-63.5 492.5zM422 883q0 -72 35 -108t86 -36q59 0 111.5 42.5t54.5 101.5q0 61 -41 95t-103 34q-57 0 -100 -34t-43 -95z" />
<glyph unicode="S" horiz-adv-x="1105" d="M31 1006q0 158 124 251t279 107q111 8 178 8q201 0 353 -74q-8 -29 -14.5 -43t-25 -38.5t-56.5 -46t-95 -42.5q-125 -43 -125 -125t125 -139q301 -154 301 -385q0 -37 -6 -78q-27 -115 -92.5 -196.5t-154.5 -125.5t-182 -63.5t-198 -19.5q-215 0 -358 59q27 74 74 116 t93 54.5t109.5 45t110.5 85.5q39 39 39 82q0 14 -4 27.5t-15.5 27t-20.5 24.5t-27.5 23.5t-31 20.5t-36 20.5t-33.5 17.5t-36.5 17.5t-33.5 16.5q-102 49 -170.5 148.5t-70.5 224.5z" />
<glyph unicode="T" horiz-adv-x="1128" d="M10 1122q0 66 9.5 133.5t21.5 75.5q55 33 338 43q8 0 61.5 1t91.5 1q152 0 259 -4q262 -14 278 -24q20 -14 34.5 -64.5t14.5 -103.5q0 -45 -12 -72q-6 -14 -134 -56.5t-198 -58.5q-45 -322 -69 -993q-6 -2 -17 -2q-111 6 -207 76q-141 100 -141 688q0 135 10 237 q-6 0 -95 8.5t-151.5 15.5t-76.5 13q-16 6 -17 86z" />
<glyph unicode="U" horiz-adv-x="1236" d="M51 692q0 221 78 656q6 24 33 24h2h2q50 0 182 -100q47 -37 80 -64.5t41 -38.5l8 -10q0 -31 -10 -132t-10 -171q0 -278 154 -278h1q49 0 88 45t60.5 124.5t35 155.5t18.5 170t6 130t1 75q0 12 3 24.5t30 31t76 18.5q63 0 147 -25q119 -137 119 -401q0 -45 -6 -92 q-20 -205 -67.5 -364t-98.5 -239.5t-98 -132t-78 -65.5l-33 -13q-63 -20 -160 -20q-152 0 -293 61q-311 158 -311 631z" />
<glyph unicode="V" horiz-adv-x="1228" d="M109 1128q2 23 10 47.5t14 38.5l6 15q10 1 38 23q21 17 56 17q11 0 22 -2q50 -7 102.5 -46t116 -253t161.5 -558q0 14 151.5 421.5t188.5 473.5q12 25 97 25h3q88 0 101 -23q18 -37 18 -91q0 -104 -68 -271q-102 -253 -190 -542.5t-97.5 -318.5t-13.5 -29 q-6 -28 -149 -28h-10q-86 -19 -154 -19q-55 0 -68 6q-90 20 -139 119q-72 141 -133 438q-77 166 -77 372q0 89 14 185z" />
<glyph unicode="W" horiz-adv-x="1357" d="M61 561q0 248 48 567q2 23 10 47.5t14 38.5l6 15q10 0 25.5 -3t56.5 -15.5t73 -29t60.5 -48t34.5 -70.5q10 -74 31.5 -193.5t32.5 -191.5q25 154 66.5 268.5t70.5 151.5l31 39h10q27 0 58.5 -8.5t86.5 -55.5t94 -129q18 -43 80 -207q0 14 -2 111.5t-2 165.5q0 270 37 336 q12 25 97 25q2 -1 3 -1q88 0 101 -22q53 -109 82.5 -429.5t29.5 -607.5q0 -66 -8 -126t-17 -88.5t-14 -28.5q-6 -29 -159 -29h-43q-68 0 -138.5 50t-115 101.5t-107.5 139.5q-8 -25 -19 -52.5t-43 -83t-68 -95.5t-96 -71.5t-128 -31.5q-55 0 -68 6q-90 20 -139 119 q-72 141 -72 436z" />
<glyph unicode="X" horiz-adv-x="1241" d="M10 1038q0 66 77 193t116 127h8q45 -33 116.5 -122t154.5 -200.5t122 -158.5q72 82 174.5 207.5t167 206.5t68.5 83h10q63 0 182 -86q45 -33 45 -94q0 -31 -14 -64q-6 -12 -62.5 -102t-143.5 -222t-157 -226q150 -209 181 -277q26 -57 26 -106t-18.5 -92.5t-33.5 -61.5 t-23 -25l-410 275q-166 -174 -375 -287q-6 -6 -22 -6q-41 0 -87 21.5t-46 50.5v4q23 139 266 467q-2 2 -88 127t-156 230.5t-74 117.5t-4 20z" />
<glyph unicode="Y" horiz-adv-x="1269" d="M10 1038q0 66 77 193t116 127h8q45 -33 116.5 -122t154.5 -200.5t122 -158.5q72 82 174.5 207.5t167 206.5t68.5 83h10q63 0 182 -86q45 -33 45 -94q0 -31 -14 -64q-6 -12 -62.5 -102t-143.5 -222t-157 -226l-92 -80q1 -45 1 -88q0 -254 -31 -406q-6 -6 -23 -6h-165 t-124 29v4q-20 172 -26 446q-2 2 -129 159t-197 262.5t-74 117.5t-4 20z" />
<glyph unicode="Z" horiz-adv-x="1251" d="M31 1188q0 8 16 37.5t53 76t85 87.5t126 69.5t166 28.5q74 0 163 -17.5t185.5 -53.5t161 -106.5t64.5 -160.5q0 -70 -37 -119l-29 -39q-33 -35 -69.5 -86t-75.5 -112.5t-131.5 -152.5t-92.5 -153q0 -78 103.5 -116.5t163 -64t113 -37t106.5 -11.5q8 0 29.5 1t35.5 1 q37 0 37 -22q-4 -109 -162.5 -176.5t-326.5 -67.5q-139 0 -250 17.5t-178.5 44t-116.5 66.5t-71.5 71.5t-35 75.5t-14.5 61.5t-2 46.5v8q0 84 50 175t122 163t142.5 137.5t119.5 123.5t49 95q0 113 -335 113q-125 0 -164 -4z" />
<glyph unicode="a" horiz-adv-x="1155" d="M41 408q0 131 39 239.5t97.5 179t135 125t146 83t136.5 47t99.5 23.5t40.5 5q57 -49 107.5 -127t92.5 -183.5t64.5 -172t57.5 -178.5q31 -102 55.5 -212t34.5 -169l8 -60q-6 -2 -18 -2q-166 0 -301 133q-197 -139 -416 -139q-162 0 -270.5 98.5t-108.5 309.5zM315 428 q0 -53 35 -82t86 -29q55 0 101.5 36t46.5 93q0 51 -45 85t-103 34q-51 0 -86 -33.5t-35 -103.5z" />
<glyph unicode="b" horiz-adv-x="1087" d="M20 598q0 37 5 127q35 557 90 629q18 18 98 18q82 0 109 -22q23 -78 43 -359l8 -65l76 4q61 0 122.5 -7.5t147.5 -37t150.5 -76.5t109.5 -139t45 -213q0 -96 -42 -174t-101.5 -124t-150.5 -80t-153.5 -48.5t-151.5 -22.5t-107.5 -8h-51.5q-72 0 -98 27l-16 18 q-16 16 -38 60.5t-42.5 105.5t-36 164.5t-15.5 222.5zM340 414q0 -61 52 -103.5t115.5 -42.5t94.5 43t31 86q0 61 -49 112.5t-109 51.5q-53 0 -94 -48t-41 -99z" />
<glyph unicode="c" horiz-adv-x="1024" d="M41 496q0 262 154 426q176 186 485 186q154 0 272 -59q10 -23 11 -64q0 -61 -33 -131q-84 -8 -147.5 -26.5t-84.5 -32.5l-20 -15q-139 -104 -139 -225q0 -90 81.5 -181t184 -151.5t209.5 -99.5q-29 -41 -122 -82t-212 -41q-154 2 -273.5 42t-186 94t-109.5 125 t-56.5 127.5t-13.5 107.5z" />
<glyph unicode="d" horiz-adv-x="1087" d="M31 457q0 121 45 213t108.5 139t148.5 76.5t146.5 37t122.5 7.5l74 -4l8 65q20 281 43 359q26 22 102 22h7q78 0 96 -18q55 -72 90 -629q4 -90 4 -127q0 -119 -15.5 -222.5t-36 -164.5t-42 -105.5t-35.5 -60.5l-16 -18q-27 -27 -99 -27h-51t-106 8t-150.5 22.5t-153 48.5 t-148.5 80t-100 123.5t-42 174.5zM418 397q0 -43 30.5 -86t94 -43t115 42t51.5 104q0 51 -40 99t-94 48q-59 0 -108 -51t-49 -113z" />
<glyph unicode="e" horiz-adv-x="1069" d="M41 575q0 285 96 390q55 59 160.5 94t168 40t118.5 5q238 0 348 -131q96 -115 96 -332q-364 -74 -364 -243q0 -155 352 -267q-39 -49 -149.5 -90t-254.5 -41q-66 0 -123 6t-140 34t-142.5 74t-106.5 136t-55 213q-4 47 -4 112zM309 741q0 -59 38 -89.5t95 -30.5 q61 0 112.5 38.5t51.5 100.5q0 57 -50 96t-112 39q-59 0 -97 -38t-38 -116z" />
<glyph unicode="f" horiz-adv-x="798" d="M61 786q0 133 11 318q6 117 120.5 190.5t264.5 77.5h21q96 0 165 -16q68 -16 110 -68.5t56 -105.5q-174 -25 -287.5 -115t-140.5 -240h299q-18 -102 -109.5 -169.5t-189.5 -75.5v-84q0 -68 -4 -232t-4 -256q-98 -10 -135 -10q-100 0 -144 37q-33 335 -33 749z" />
<glyph unicode="g" horiz-adv-x="1058" d="M0 541q0 -127 45 -223.5t108.5 -145.5t148.5 -81t146.5 -39t122.5 -7h11q-27 -135 -138 -233l-18 -15q-16 -14 -69.5 -32.5t-125.5 -26.5q-26 -69 -26 -129q0 -45 8 -68q100 -57 229 -57q262 2 410 188q125 172 139 588q4 94 4 131q0 125 -15 233.5t-35.5 173t-42 110.5 t-36.5 63l-16 18q-27 29 -98 29h-51.5t-106.5 -8.5t-150.5 -23.5t-152.5 -51t-148.5 -84t-100.5 -129t-42 -181zM387 602q0 45 31 90t94 45t114.5 -44t51.5 -107q0 -55 -40 -105.5t-93 -50.5q-59 0 -108.5 54.5t-49.5 117.5z" />
<glyph unicode="h" d="M43 713v499q2 17 8 17h62q6 -2 6 -17v-475q0 -149 54 -149h1h4q66 0 66 155v469q2 16 8 17h61q8 -2 9 -17v-483q0 -188 -74 -258q-35 -25 -62 -25h-8q-88 0 -125 150q-10 70 -10 117zM383 463v532q2 14 8 15h51q6 0 7 -47q38 55 77 55h2q70 -23 70 -150q4 0 4 -45v-360 q0 -16 -6 -17h-59q-8 0 -9 17v360q0 70 -24 70q-18 0 -47 -39v-391q0 -16 -8 -17h-58q-8 0 -8 17zM649 463v532q2 14 8 15h52q8 0 8 -56q30 64 67 64l4 -17v-124q0 -14 -36 -23q-33 -53 -33 -94v-297q0 -16 -6 -17h-56q-8 0 -8 17zM797 705v47q0 219 94 266h18 q94 0 111 -250v-63q0 -14 -8 -15h-146q6 -119 43 -119h4q23 0 58 64q45 -49 49 -70q-37 -119 -111 -119h-4q-78 0 -102 172q-6 31 -6 87zM866 815h88q-10 78 -41 78h-4q-43 -10 -43 -78zM1034 393q0 59 33 109q-27 29 -27 86q4 39 33 94q-29 68 -29 133v23q0 157 111 180 q23 0 55 -39q23 39 66 39l2 -17v-77q0 -14 -35 -23q10 -41 10 -94q0 -188 -143 -189v-14q0 -23 125 -47q41 -47 41 -117v-47q0 -115 -125 -141q-117 0 -117 141zM1100 408q0 -47 59 -48h6q45 14 45 41v15q0 37 -77 47q-33 -12 -33 -55zM1110 823q0 -61 37 -71h4q20 0 33 47 v47q-12 47 -33 47q-41 0 -41 -70zM1313 463v532q0 15 6 15h55q6 -2 6 -15v-532q0 -16 -6 -17h-55q-6 0 -6 17zM1313 1104v108q0 17 6 17h55q6 -2 6 -17v-108q0 -16 -6 -17h-55q-6 0 -6 17zM1421 565v15q35 72 47 71q27 -80 52 -80q29 0 32 33v31q-10 18 -98 102 q-12 0 -24 92v39q0 132 86 150h4q57 0 92 -94v-9q0 -6 -41 -77h-4q-27 55 -51 55q-20 -4 -21 -25v-30q10 -18 94 -95q29 -41 29 -139v-8q0 -94 -57 -141q-25 -8 -41 -9q-63 0 -99 119zM1630 909v92q0 16 6 17h27v164q0 16 6 16h60q8 -2 8 -16v-164h43q8 -2 8 -17v-92 q0 -16 -8 -16h-43v-305q0 -16 6 -17l45 9v-109q-4 -25 -23 -25h-45q-57 0 -57 197v250h-27q-6 0 -6 16zM1798 705v47q0 219 94 266h19q94 0 110 -250v-63q0 -14 -8 -15h-145q6 -119 43 -119h4q23 0 59 64q43 -49 47 -70q-35 -119 -110 -119h-2q-80 0 -103 172q-8 31 -8 87z M1868 815h88q-10 78 -41 78h-4q-43 -10 -43 -78zM2058 463v532q0 14 6 15h52q8 0 8 -56q30 64 69 64l5 -17v-124q0 -14 -37 -23q-33 -53 -33 -94v-297q0 -16 -8 -17h-56q-6 0 -6 17zM2204 705v47q0 219 96 266h16q94 0 111 -250v-63q0 -14 -8 -15h-146q6 -119 43 -119h4 q23 0 60 64q43 -49 47 -70q-35 -119 -111 -119h-2q-78 0 -102 172q-8 31 -8 87zM2273 815h88q-10 78 -41 78h-4q-43 -10 -43 -78zM2454 705v63q0 207 98 250h10q18 0 51 -39v233q2 17 8 17h58q8 -2 8 -17v-741q0 -16 -8 -16h-47q-8 0 -9 47q-29 -55 -67 -56q-90 0 -102 259z M2521 729q8 -158 49 -158h2q16 0 41 33v250q0 18 -37 39h-6q-43 0 -49 -164z" />
<glyph unicode="i" horiz-adv-x="509" d="M63 862v121v5t4.5 9.5t11.5 13.5t23.5 9t40.5 4q100 0 299 -61q6 -74 7 -164q0 -182 -18.5 -407.5t-41.5 -289.5q-16 -51 -44 -76.5t-81 -25.5q-55 0 -105 17.5t-55 37.5q-41 197 -41 807zM66 1270q0 43 10 53q18 25 68.5 37t91 12t66.5 -4t54.5 -17.5t42 -46t13.5 -83.5 q0 -96 -58 -101q-90 -8 -112 -8q-115 0 -145.5 29.5t-30.5 128.5z" />
<glyph unicode="j" d="M43 713v499q2 17 8 17h62q6 -2 6 -17v-475q0 -149 54 -149h1h4q66 0 66 155v469q2 16 8 17h61q8 -2 9 -17v-483q0 -188 -74 -258q-35 -25 -62 -25h-8q-88 0 -125 150q-10 70 -10 117zM383 463v532q2 14 8 15h51q6 0 7 -47q38 55 77 55h2q70 -23 70 -150q4 0 4 -45v-360 q0 -16 -6 -17h-59q-8 0 -9 17v360q0 70 -24 70q-18 0 -47 -39v-391q0 -16 -8 -17h-58q-8 0 -8 17zM649 463v532q2 14 8 15h52q8 0 8 -56q30 64 67 64l4 -17v-124q0 -14 -36 -23q-33 -53 -33 -94v-297q0 -16 -6 -17h-56q-8 0 -8 17zM797 705v47q0 219 94 266h18 q94 0 111 -250v-63q0 -14 -8 -15h-146q6 -119 43 -119h4q23 0 58 64q45 -49 49 -70q-37 -119 -111 -119h-4q-78 0 -102 172q-6 31 -6 87zM866 815h88q-10 78 -41 78h-4q-43 -10 -43 -78zM1034 393q0 59 33 109q-27 29 -27 86q4 39 33 94q-29 68 -29 133v23q0 157 111 180 q23 0 55 -39q23 39 66 39l2 -17v-77q0 -14 -35 -23q10 -41 10 -94q0 -188 -143 -189v-14q0 -23 125 -47q41 -47 41 -117v-47q0 -115 -125 -141q-117 0 -117 141zM1100 408q0 -47 59 -48h6q45 14 45 41v15q0 37 -77 47q-33 -12 -33 -55zM1110 823q0 -61 37 -71h4q20 0 33 47 v47q-12 47 -33 47q-41 0 -41 -70zM1313 463v532q0 15 6 15h55q6 -2 6 -15v-532q0 -16 -6 -17h-55q-6 0 -6 17zM1313 1104v108q0 17 6 17h55q6 -2 6 -17v-108q0 -16 -6 -17h-55q-6 0 -6 17zM1421 565v15q35 72 47 71q27 -80 52 -80q29 0 32 33v31q-10 18 -98 102 q-12 0 -24 92v39q0 132 86 150h4q57 0 92 -94v-9q0 -6 -41 -77h-4q-27 55 -51 55q-20 -4 -21 -25v-30q10 -18 94 -95q29 -41 29 -139v-8q0 -94 -57 -141q-25 -8 -41 -9q-63 0 -99 119zM1630 909v92q0 16 6 17h27v164q0 16 6 16h60q8 -2 8 -16v-164h43q8 -2 8 -17v-92 q0 -16 -8 -16h-43v-305q0 -16 6 -17l45 9v-109q-4 -25 -23 -25h-45q-57 0 -57 197v250h-27q-6 0 -6 16zM1798 705v47q0 219 94 266h19q94 0 110 -250v-63q0 -14 -8 -15h-145q6 -119 43 -119h4q23 0 59 64q43 -49 47 -70q-35 -119 -110 -119h-2q-80 0 -103 172q-8 31 -8 87z M1868 815h88q-10 78 -41 78h-4q-43 -10 -43 -78zM2058 463v532q0 14 6 15h52q8 0 8 -56q30 64 69 64l5 -17v-124q0 -14 -37 -23q-33 -53 -33 -94v-297q0 -16 -8 -17h-56q-6 0 -6 17zM2204 705v47q0 219 96 266h16q94 0 111 -250v-63q0 -14 -8 -15h-146q6 -119 43 -119h4 q23 0 60 64q43 -49 47 -70q-35 -119 -111 -119h-2q-78 0 -102 172q-8 31 -8 87zM2273 815h88q-10 78 -41 78h-4q-43 -10 -43 -78zM2454 705v63q0 207 98 250h10q18 0 51 -39v233q2 17 8 17h58q8 -2 8 -17v-741q0 -16 -8 -16h-47q-8 0 -9 47q-29 -55 -67 -56q-90 0 -102 259z M2521 729q8 -158 49 -158h2q16 0 41 33v250q0 18 -37 39h-6q-43 0 -49 -164z" />
<glyph unicode="k" horiz-adv-x="1024" d="M61 717q0 182 33 370q29 141 84 228q35 61 90 61q31 0 70 -18q72 -33 72 -455v-41q137 92 305 185q23 12 47 12q35 0 59.5 -30t33.5 -72t12 -68.5t3 -40.5l-2 -33l-348 -266q20 -8 54 -24.5t121 -64.5t153.5 -95.5t121 -111t54.5 -118.5q0 -20 -4 -31q-8 -47 -57 -104 q-416 211 -555 287q0 -8 -3.5 -32t-16.5 -70t-34.5 -84t-64.5 -67.5t-99 -29.5q-49 68 -89 266.5t-40 446.5z" />
<glyph unicode="l" horiz-adv-x="550" d="M61 438l23 860q6 8 17.5 20.5t56.5 33t102 20.5q152 0 152 -84v-8q-16 -262 -17 -465q0 -557 105 -569h2l49 -2q-29 -156 -76 -205t-143 -49q-72 0 -137 45q-70 45 -102 173t-32 230z" />
<glyph unicode="m" horiz-adv-x="1740" d="M61 285q-3 44 -3 89q0 311 161 707l129 -22q76 47 178 55q18 1 36 1q130 0 229 -64q74 -51 122 -119l95 104q76 47 178 56q18 1 35 1q129 0 229 -66q112 -75 167.5 -191.5t65.5 -257.5q3 -33 2 -67q1 -125 -35 -247q-46 -154 -141 -258q-6 -6 -16 -6h-4q-20 0 -52 18 q-36 20 -63 41l-24 21q18 116 18 223q0 51 -4 100q-17 240 -146 240h-10q-82 -6 -134 -106.5t-70.5 -214t-56.5 -213t-91 -103.5h-5q-40 0 -67 31q-4 2 -6 4q-37 20 -63 41l-25 20q19 119 19 229q0 49 -4 95q-17 240 -146 240h-10q-82 -6 -134.5 -106.5t-70.5 -214.5 t-56 -213t-91 -103h-7q-109 0 -129 256z" />
<glyph unicode="n" horiz-adv-x="1077" d="M61 285q-3 44 -3 89q0 311 161 707l129 -22q76 47 178 55q18 1 35 1q129 1 229 -65q112 -74 168 -191.5t68 -258.5q2 -33 3 -65q0 -127 -38 -249q-47 -154 -141 -257q-6 -6 -16 -6h-4q-20 0 -52 18q-36 20 -61 41l-27 20q20 126 20 240q0 43 -3 84q-19 240 -148 240h-10 q-82 -6 -133 -106.5t-69.5 -214.5t-56.5 -213t-93 -103h-7q-109 0 -129 256z" />
<glyph unicode="o" horiz-adv-x="1064" d="M41 516q0 340 92 440q129 141 449 142q238 0 346 -131q96 -113 96 -318q-2 -203 -72 -381q-112 -278 -331 -278q-25 0 -74 4q-133 23 -232.5 74t-149.5 103t-80 117.5t-35 99.5t-7 65q-2 27 -2 63zM430 414q0 -49 45 -102.5t104.5 -53.5t105.5 56.5t46 123.5q1 49 -22 82 q-41 57 -107 58q-63 0 -117.5 -50.5t-54.5 -113.5z" />
<glyph unicode="p" horiz-adv-x="1110" d="M61 823q0 190 13 275l28 -4q29 -4 75 -7.5t89 -3.5q53 0 147.5 5.5t123.5 5.5q141 0 246.5 -36t156.5 -83t83 -110.5t39 -99.5t7 -69v-41q0 -127 -29.5 -231.5t-73.5 -170t-102.5 -114.5t-110 -73.5t-103.5 -38t-74.5 -16.5t-30.5 -3l-123 -16q59 -276 59 -352 q0 -37 -129 -37q-102 0 -139 14q-10 0 -55 256q-96 522 -97 950zM481 520q0 -61 40.5 -94t99.5 -33q66 0 120 41t54 107q0 61 -52.5 102t-117.5 41q-63 0 -103.5 -41t-40.5 -123z" />
<glyph unicode="q" horiz-adv-x="1048" d="M0 541q0 -127 45 -223.5t108.5 -145.5t148.5 -81t146.5 -39t122.5 -7l74 4l8 -67q20 -295 43 -377q27 -23 109 -23q78 0 96 19q55 76 90 659q4 94 4 131q0 125 -15 233.5t-35.5 173t-42 110.5t-36.5 63l-16 18q-27 29 -98 29h-51.5t-106.5 -8.5t-150.5 -23.5t-152.5 -51 t-148.5 -84t-100.5 -129t-42 -181zM387 602q0 45 31 90t94 45t114.5 -44t51.5 -107q0 -55 -40 -105.5t-93 -50.5q-59 0 -108.5 54.5t-49.5 117.5z" />
<glyph unicode="r" horiz-adv-x="833" d="M51 831q0 152 25 265q131 -18 221 -90q289 84 428 84q62 -1 109 -9q0 -88 -37 -131q-4 -2 -29 -14t-39 -20.5t-44 -27t-49.5 -32.5t-49 -38.5t-48 -47t-40 -54.5t-34.5 -65t-21.5 -72.5t-8.5 -82.5q0 -51 20.5 -221.5t20.5 -219.5q0 -29 -12 -37q-40 -28 -189 -28h-10h-9 t-21.5 4t-28.5 10t-24.5 19.5t-16.5 31.5q-113 502 -113 776z" />
<glyph unicode="s" horiz-adv-x="989" d="M20 143q0 20 39 21q111 2 213.5 53t102.5 127q0 47 -47 96q-35 37 -91.5 84t-94.5 90t-76 113q-27 47 -27 94q0 121 161.5 199t356.5 78q135 0 229.5 -42t112.5 -126q-88 -4 -224 -38t-136 -93q0 -16 16 -39q39 -47 116 -99.5t139 -90.5t110.5 -101t48.5 -139 q-12 -141 -197.5 -240.5t-390.5 -99.5q-137 0 -249 50t-112 103z" />
<glyph unicode="t" horiz-adv-x="550" d="M-41 944q0 45 11.5 85t25.5 44q33 10 82 17l6 208q6 8 17.5 20.5t56.5 33t102 20.5q152 0 152 -84v-8q-6 -82 -9 -160q78 4 168 8l86 5h3.5t7.5 -3.5t9 -8.5t7 -18t4 -34v-8q0 -80 -37 -232q-51 -6 -116 -8q-44 -3 -92 -3q-24 0 -48 1v-4q0 -557 105 -569h2l49 -2 q-29 -156 -76 -205t-143 -49q-72 0 -137 45q-70 45 -102 173t-32 230l11 402q-23 4 -35 8q-39 12 -57.5 33.5t-20.5 62.5z" />
<glyph unicode="u" horiz-adv-x="1077" d="M41 551q0 160 58.5 310.5t160.5 244.5q6 6 16 6q20 0 54.5 -23.5t58.5 -46.5l25 -22q-41 -168 -41 -322q0 -249 136 -249h1q82 0 141.5 95t87 207.5t72.5 208t100 95.5q115 0 115 -264q0 -344 -219 -783l-127 33q-80 -41 -182 -41q-152 0 -258.5 84t-152.5 205t-46 262z " />
<glyph unicode="v" horiz-adv-x="1228" d="M106 913q2 18 9.5 38t13.5 32l6 10q8 1 34 19q20 15 53 14q9 0 18 -1q45 -5 92 -37t105.5 -205t146.5 -451q0 12 138 340.5t171 382.5q12 20 92 20t90 -18q17 -30 17 -75q0 -84 -61 -217q-93 -204 -173 -438.5t-88 -257t-12 -22.5q-6 -24 -135 -24h-11q-78 -15 -139 -15 q-51 0 -61 4q-82 18 -127 97q-66 115 -121 354q-70 136 -70 304q0 70 12 146z" />
<glyph unicode="w" horiz-adv-x="1335" d="M61 434q0 190 48 436q2 18 9 37t13 31l6 10q10 0 25.5 -2t55.5 -11t70.5 -22.5t59.5 -38t35 -53.5q10 -57 30.5 -149t30.5 -148q25 117 66 206t70 118l30 29h8q27 0 59 -6.5t86 -42t91 -99.5q18 -33 78 -160q0 10 -2 86t-2 127q0 209 37 260q12 18 98 18q2 0 5 1 q81 0 93 -17q53 -84 82 -331.5t29 -468.5q0 -51 -8.5 -97.5t-17.5 -69t-13 -22.5q-6 -22 -144 -22h-12h-43q-66 0 -135.5 39t-112.5 78.5t-104 107.5q-8 -18 -19.5 -39.5t-42 -64.5t-66.5 -74t-94.5 -55.5t-125.5 -24.5q-53 0 -66 4q-88 16 -137 92q-70 109 -70 338z" />
<glyph unicode="x" horiz-adv-x="1241" d="M66 63v5q23 123 264 415q-2 0 -87 112t-111 150.5t-30 50t-4 17.5q0 59 76 172t115 113h8q45 -29 116.5 -108t110.5 -124t76 -86q72 72 127 131.5t119.5 131t68.5 73.5h11q61 0 180 -76q45 -31 45 -84q0 -29 -14 -57q-6 -10 -62.5 -90t-96.5 -144.5t-108 -148.5 q147 -186 179 -246q26 -51 26 -95t-18.5 -82t-33.5 -54t-24 -23l-407 244q-164 -154 -371 -254q-6 -6 -22 -6q-41 0 -87 19.5t-46 43.5z" />
<glyph unicode="y" horiz-adv-x="1077" d="M50 776q30 158 112 268q6 8 16 11q18 4 56 -13.5t67 -33.5l29 -19q-3 -45 -3 -89q0 -123 21 -234q43 -222 157 -222q12 0 25 2q80 14 121 119q33 82 47.5 226.5t32.5 214.5q27 100 80 110q17 4 33 4q88 0 130 -107q50 -126 50 -637t-30.5 -639t-96.5 -173 q-63 -45 -131 -45q-92 0 -137 49t-72 205l47 2h2q68 8 88 256q-43 -18 -92 -29q-45 -8 -88 -8q-98 0 -182 44q-119 62 -186.5 171.5t-94.5 249.5q-16 80 -16 161q0 78 15 156z" />
<glyph unicode="z" horiz-adv-x="991" d="M31 883q0 6 13 28.5t44 56t71 64.5t104.5 52.5t135.5 21.5q61 0 135 -13.5t154 -40t133 -78.5t53 -120q0 -51 -30 -88l-25 -29q-27 -27 -57.5 -64.5t-62 -83.5t-53 -99.5t-21.5 -98.5q0 -59 30.5 -102t79.5 -62.5t93 -28t87 -8.5q8 0 26 1.5t30 1.5q30 0 30 -16 q0 -82 -135 -133q-131 -50 -270 -50q-115 0 -206 13t-147.5 32.5t-97.5 49.5t-59 53.5t-28.5 56t-11.5 46t-1 34.5v6q0 63 41 130.5t100.5 121t117.5 102.5t99 92t41 72q0 84 -278 84q-102 0 -135 -4z" />
<glyph unicode="&#x2000;" horiz-adv-x="743" />
<glyph unicode="&#x2001;" horiz-adv-x="1487" />
<glyph unicode="&#x2002;" horiz-adv-x="743" />
<glyph unicode="&#x2003;" horiz-adv-x="1487" />
<glyph unicode="&#x2004;" horiz-adv-x="495" />
<glyph unicode="&#x2005;" horiz-adv-x="371" />
<glyph unicode="&#x2006;" horiz-adv-x="247" />
<glyph unicode="&#x2007;" horiz-adv-x="247" />
<glyph unicode="&#x2008;" horiz-adv-x="185" />
<glyph unicode="&#x2009;" horiz-adv-x="297" />
<glyph unicode="&#x200a;" horiz-adv-x="82" />
<glyph unicode="&#x2019;" horiz-adv-x="417" d="M61 1229q0 72 33 122t84 50q72 0 125 -51.5t53 -171.5q0 -72 -25.5 -132.5t-72.5 -87.5q-29 -16 -41 -16l-18 8q31 72 30 111q0 8 -2 12q-166 4 -166 156z" />
<glyph unicode="&#x202f;" horiz-adv-x="297" />
<glyph unicode="&#x205f;" horiz-adv-x="371" />
<glyph unicode="&#x2122;" horiz-adv-x="1136" d="M61 1317q0 82 15 92q12 10 139 10q4 0 26.5 1t37 1t40 -1t33.5 -1q20 -2 57 -3t64 -2t31 -3q20 -16 20 -70q0 -20 -6 -32q-6 -14 -139 -47q-6 -47 -13.5 -154t-12.5 -183.5t-11 -76.5q-43 0 -84 31q-59 43 -59 284q0 63 4 101q-121 10 -133 16q-8 2 -9 37zM553 1343 q35 12 106 13q51 0 78 -18.5t68 -71.5q84 129 182 172l6 -4q6 -4 9.5 -7.5l10.5 -10.5t12 -14t12 -19.5t12.5 -27t10.5 -33.5t8 -42t5 -52.5t2 -62.5q0 -102 -20 -243q-4 -39 -56 -41q-61 0 -61 18q-4 82 -4 158q0 12 1 32.5t1 28.5q-31 -86 -60.5 -142t-44.5 -71l-14 -12 q-66 49 -108 182v-61q0 -94 -17 -125q-6 -10 -41 -10q-39 0 -43 10q-20 43 -34.5 156.5t-16.5 205.5z" />
<glyph unicode="&#x25fc;" horiz-adv-x="1116" d="M0 0v1116h1116v-1116h-1116z" />
</font>
</defs>
</svg>
